<svg xmlns="http://www.w3.org/2000/svg" viewBox="0 0 512 512" width="100%" height="100%">
  <!-- Background Circle -->
  <circle cx="256" cy="256" r="240" fill="#16a34a" />
  
  <!-- Motion Swoosh -->
  <path d="M 120 340 Q 256 160 392 340" fill="none" stroke="rgba(255,255,255,0.3)" stroke-width="8" stroke-linecap="round" />
  
  <!-- Racket shaft -->
  <line x1="156" y1="356" x2="266" y2="246" stroke="#ffffff" stroke-width="10" stroke-linecap="round" />
  
  <!-- Racket grip -->
  <line x1="126" y1="386" x2="156" y2="356" stroke="#e2e8f0" stroke-width="14" stroke-linecap="round" />
  
  <!-- Racket head cap -->
  <circle cx="120" cy="392" r="6" fill="#cbd5e1" />
  
  <!-- Racket head (oval) -->
  <circle cx="306" cy="206" r="55" fill="none" stroke="#ffffff" stroke-width="12" />
  
  <!-- Racket strings -->
  <path d="M 276 176 L 336 236 M 291 161 L 351 221 M 261 191 L 321 251 M 276 236 L 336 176 M 261 221 L 321 161 M 291 251 L 351 191" stroke="rgba(255,255,255,0.6)" stroke-width="2.5" />
  
  <!-- T-Joint -->
  <circle cx="271" cy="241" r="7" fill="#ffffff" />
  
  <!-- Shuttlecock cork -->
  <circle cx="206" cy="236" r="14" fill="#f8fafc" />
  <path d="M 194 230 C 194 220 218 220 218 230 Z" fill="#ef4444" /> <!-- Red stripe on cork -->
  
  <!-- Shuttlecock skirt/feathers -->
  <path d="M 206 236 L 161 191 C 158 188 153 192 156 195 L 195 241 Z" fill="rgba(255,255,255,0.9)" stroke="#ffffff" stroke-width="2.5" stroke-linejoin="round" />
  <path d="M 206 236 L 151 206 C 148 203 144 207 147 210 L 195 241 Z" fill="rgba(255,255,255,0.9)" stroke="#ffffff" stroke-width="2.5" stroke-linejoin="round" />
  <path d="M 206 236 L 171 181 C 168 178 163 182 166 185 L 195 241 Z" fill="rgba(255,255,255,0.9)" stroke="#ffffff" stroke-width="2.5" stroke-linejoin="round" />
  
  <!-- Internal feather ribs -->
  <line x1="206" y1="236" x2="166" y2="196" stroke="#cbd5e1" stroke-width="2" />
  <line x1="206" y1="236" x2="156" y2="211" stroke="#cbd5e1" stroke-width="2" />
  <line x1="206" y1="236" x2="176" y2="186" stroke="#cbd5e1" stroke-width="2" />
</svg>